HIERARCHY
ROOT Hips
{
	OFFSET 0.00000 0.00000 0.00000
	CHANNELS 6 Xposition Yposition Zposition Yrotation Zrotation Xrotation 
	JOINT Lumbar
	{
		OFFSET 0 0 0
		CHANNELS 3 Zrotation Xrotation Yrotation
		JOINT Neck
		{
			OFFSET 0.00 0.2701 0.00
			CHANNELS 3 Zrotation Xrotation Yrotation
			End Site
			{
				OFFSET 0.00 0.1379 0.00
			}
		}
		JOINT RightShoulder
		{
			OFFSET 0.0119 0.2289 0.1181
			CHANNELS 3 Zrotation Xrotation Yrotation
			JOINT RightElbow
			{
				OFFSET 0.00 -0.1475 0.00
				CHANNELS 2 Zrotation Yrotation
				JOINT RightWrist
				{
					OFFSET 0.00 -0.1605 0.00
					CHANNELS 2 Zrotation Xrotation
					End Site
					{
						OFFSET 0.0040 -0.1068 0.0006
					}
				}
			}
		}
		JOINT LeftShoulder
		{
			OFFSET 0.0119 0.2289 -0.1181
			CHANNELS 3 Zrotation Xrotation Yrotation
			JOINT LeftElbow
			{
				OFFSET 0.00 -0.1475 0.00
				CHANNELS 2 Zrotation Yrotation
				JOINT LeftWrist
				{
					OFFSET 0.00 -0.1605 0.00
					CHANNELS 2 Zrotation Xrotation
					End Site
					{
						OFFSET 0.0040 -0.1068 -0.0006
					}
				}
			}
		}
	}
	JOINT RightHip
	{
		OFFSET 0.0316 -0.0424 0.0458
		CHANNELS 3 Zrotation Xrotation Yrotation
		JOINT RightKnee
		{
			OFFSET 0.00 -0.2438 0.00
			CHANNELS 1 Zrotation
			JOINT RightAnkle
			{
				OFFSET 0.00 -0.2449 0.00
				CHANNELS 3 Zrotation Xrotation Yrotation
				End Site
				{
					OFFSET 0.1237 -0.0542 0.0051
				}
			}
		}
	}
	JOINT LeftHip
	{
		OFFSET 0.0316 -0.0424 -0.0458
		CHANNELS 3 Zrotation Xrotation Yrotation
		JOINT LeftKnee
		{
			OFFSET 0.00 -0.2438 0.00
			CHANNELS 1 Zrotation
			JOINT LeftAnkle
			{
				OFFSET 0.00 -0.2449 0.00
				CHANNELS 3 Zrotation Xrotation Yrotation
				End Site
				{
					OFFSET 0.1237 -0.0542 -0.0051
				}
			}
		}
	}
}
MOTION
Frames: 14
Frame Time: 0.02
0.00063 0.0004 0.00044 12.85071 -20.95128 -5.25087 46.21479 3.51103 -16.87997 -9.05051 4.80382 -0.36916 -13.36333 -10.32751 -4.73707 28.18874 126.0111 9.99252 7.86391 -19.944 21.05674 -9.3132 61.32216 -92.00611 7.93888 0.12283 36.34273 1.87354 -11.13052 -21.12195 -7.37366 -3.41687 -2.45224 35.92963 11.53008 -0.75 -27.08339 -11.02623 5.70215 3.95539
0.00085 0.00053 -0.00175 12.58005 -20.85475 -5.26419 46.36499 3.55282 -16.97447 -9.02038 4.72005 -0.37012 -13.21609 -10.28499 -4.52336 28.2785 123.53099 9.66005 7.42752 -20.80509 20.81469 -9.67699 61.1151 -92.26346 8.04689 0.08047 36.1825 1.75974 -10.74979 -21.07875 -7.39918 -3.42601 -2.45851 35.66014 11.47105 -0.14046 -27.07053 -10.94623 5.6843 3.94032
0.00106 0.00067 -0.00393 12.31002 -20.75841 -5.27755 46.5149 3.5945 -17.06861 -8.99057 4.63654 -0.37108 -13.06982 -10.24254 -4.31035 28.36837 121.05807 9.32837 6.99243 -21.66598 20.57332 -10.04003 60.91052 -92.51926 8.15412 0.03833 36.02258 1.64608 -10.37029 -21.03563 -7.42465 -3.43509 -2.46474 35.39126 11.41189 0.46683 -27.05772 -10.8665 5.66655 3.92531
0.00128 0.0008 -0.00612 12.04015 -20.66217 -5.29083 46.66467 3.63616 -17.16283 -8.96055 4.55303 -0.37203 -12.9231 -10.20013 -4.09732 28.45794 118.58565 8.9969 6.55743 -22.5248 20.33201 -10.40277 60.70438 -92.7757 8.26171 -0.00389 35.86283 1.53259 -9.99075 -20.99256 -7.4501 -3.4442 -2.471 35.12257 11.35298 1.07441 -27.04491 -10.78676 5.64877 3.91029
0.00149 0.00093 -0.0083 11.76976 -20.56578 -5.30407 46.81466 3.67792 -17.2574 -8.93015 4.46926 -0.37299 -12.77528 -10.15769 -3.88355 28.5472 116.10588 8.66468 6.12102 -23.38293 20.09002 -10.76608 60.49511 -93.03396 8.37028 -0.04635 35.70282 1.41905 -9.60996 -20.94943 -7.47561 -3.45341 -2.47731 34.85335 11.29434 1.68441 -27.03203 -10.70672 5.63088 3.89518
0.00171 0.00106 -0.01049 11.50051 -20.46951 -5.31767 46.96437 3.71946 -17.35059 -8.90159 4.38631 -0.37395 -12.63229 -10.11524 -3.67214 28.63833 113.64733 8.33414 5.68866 -24.24955 19.84996 -11.12853 60.30038 -93.28459 8.47473 -0.08781 35.54306 1.30512 -9.23319 -20.90632 -7.50099 -3.46219 -2.48337 34.58518 11.2341 2.286 -27.01935 -10.62765 5.61341 3.88039
0.00192 0.0012 -0.01267 11.22922 -20.37316 -5.33051 47.11451 3.76138 -17.44656 -8.86928 4.3018 -0.37491 -12.47962 -10.07282 -3.45628 28.72571 111.14978 8.0007 5.24896 -25.09804 19.60634 -11.49239 60.07658 -93.55029 8.58726 -0.13125 35.38306 1.19211 -8.84879 -20.86323 -7.52659 -3.47181 -2.48992 34.31524 11.1771 2.90368 -27.00632 -10.54674 5.59512 3.865
0.00214 0.00133 -0.01486 10.95988 -20.27679 -5.34406 47.2642 3.80295 -17.53979 -8.8406 4.21871 -0.37587 -12.33609 -10.03042 -3.24439 28.81635 108.68638 7.66971 4.81546 -25.96343 19.36591 -11.8548 59.87966 -93.80213 8.69249 -0.17285 35.22316 1.07825 -8.47132 -20.8201 -7.552 -3.48068 -2.49603 34.04683 11.11717 3.50687 -26.99358 -10.46748 5.57757 3.85014
0.00235 0.00146 -0.01704 10.69248 -20.18073 -5.35845 47.41364 3.84412 -17.63039 -8.81572 4.13741 -0.37682 -12.20293 -9.98784 -3.03781 28.91186 106.27082 7.34244 4.3916 -26.84958 19.12961 -12.21625 59.71556 -94.03682 8.78815 -0.21226 35.06376 0.96328 -8.1026 -20.777 -7.57715 -3.48855 -2.50155 33.78054 11.05336 4.09116 -26.98129 -10.3904 5.561 3.83599
0.00259 0.0016 -0.01924 10.41258 -20.08388 -5.36792 47.56542 3.88768 -17.7383 -8.76704 4.04596 -0.37778 -12.00768 -9.94567 -2.80207 28.98202 103.59824 6.99593 3.91847 -27.61668 18.87025 -12.5857 59.36252 -94.36955 8.93693 -0.26445 34.90258 0.85446 -7.68438 -20.73396 -7.6037 -3.50191 -2.5103 33.50281 11.01099 4.78063 -26.96668 -10.30128 5.53904 3.81793
0.00276 0.00172 -0.0214 10.15997 -19.98809 -5.38784 47.71167 3.92612 -17.80829 -8.76979 3.97586 -0.37874 -11.94494 -9.90307 -2.62694 29.10393 101.45652 6.6887 3.54534 -28.63436 18.65913 -12.93659 59.40799 -94.49589 8.97493 -0.28955 34.74449 0.73282 -7.37008 -20.69063 -7.62736 -3.50386 -2.51236 33.24878 10.92397 5.25044 -26.95679 -10.23726 5.52828 3.80801
0.00275 0.0018 -0.02345 9.97571 -19.90042 -5.43613 47.84785 3.95121 -17.78453 -8.90522 3.96503 -0.37971 -12.23759 -9.85535 -2.62764 29.38401 100.88294 6.50129 3.48296 -30.35149 18.58488 -13.24978 60.55887 -94.04654 8.69489 -0.24077 34.60065 0.57432 -7.34782 -20.64797 -7.64244 -3.47299 -2.49501 33.06432 10.70783 5.09149 -26.96166 -10.24548 5.54985 3.82159
0.00268 0.00186 -0.02547 9.82029 -19.81308 -5.49497 47.97778 3.97102 -17.72076 -9.09393 3.9753 -0.38068 -12.66503 -9.80784 -2.68775 29.71322 100.82467 6.3515 3.51516 -32.31743 18.55823 -13.54164 62.10726 -93.39188 8.30609 -0.1647 34.45908 0.40317 -7.4287 -20.6048 -7.65474 -3.43099 -2.47117 32.90315 10.44779 4.71575 -26.97099 -10.27841 5.58239 3.84316
0.00263 0.00192 -0.0275 9.65562 -19.7219 -5.54916 48.1069 3.99284 -17.6686 -9.26367 3.97573 -0.38166 -13.03595 -9.76295 -2.71399 30.00922 100.4541 6.17607 3.47918 -34.16265 18.50681 -13.83492 63.46659 -92.83696 7.97635 -0.1008 34.31235 0.23899 -7.45781 -20.56081 -7.66873 -3.39504 -2.45099 32.72789 10.2125 4.45752 -26.97701 -10.2977 5.60877 3.86027
